<mxfile host="app.diagrams.net" agent="Mozilla/5.0 (Windows NT 10.0; Win64; x64) AppleWebKit/537.36 (KHTML, like Gecko) Chrome/140.0.0.0 Safari/537.36 Edg/140.0.0.0" version="28.2.3">
  <diagram name="Page-1" id="ONtsge2iNbG692ETvo9U">
    <mxGraphModel dx="1034" dy="1835" grid="1" gridSize="10" guides="1" tooltips="1" connect="1" arrows="1" fold="1" page="1" pageScale="1" pageWidth="827" pageHeight="1169" math="0" shadow="0">
      <root>
        <mxCell id="0" />
        <mxCell id="1" parent="0" />
        <mxCell id="fvIKBjMohI9ecKHUE_Nv-9" style="edgeStyle=orthogonalEdgeStyle;rounded=0;orthogonalLoop=1;jettySize=auto;html=1;exitX=0.5;exitY=0;exitDx=0;exitDy=0;endArrow=none;endFill=0;" parent="1" source="fvIKBjMohI9ecKHUE_Nv-1" target="fvIKBjMohI9ecKHUE_Nv-5" edge="1">
          <mxGeometry relative="1" as="geometry" />
        </mxCell>
        <mxCell id="fvIKBjMohI9ecKHUE_Nv-14" style="edgeStyle=orthogonalEdgeStyle;rounded=0;orthogonalLoop=1;jettySize=auto;html=1;endArrow=none;endFill=0;exitX=0.5;exitY=0;exitDx=0;exitDy=0;" parent="1" source="fvIKBjMohI9ecKHUE_Nv-10" target="fvIKBjMohI9ecKHUE_Nv-5" edge="1">
          <mxGeometry relative="1" as="geometry" />
        </mxCell>
        <mxCell id="fvIKBjMohI9ecKHUE_Nv-21" style="edgeStyle=orthogonalEdgeStyle;rounded=0;orthogonalLoop=1;jettySize=auto;html=1;exitX=0.5;exitY=0;exitDx=0;exitDy=0;endArrow=none;endFill=0;" parent="1" source="fvIKBjMohI9ecKHUE_Nv-15" target="fvIKBjMohI9ecKHUE_Nv-5" edge="1">
          <mxGeometry relative="1" as="geometry" />
        </mxCell>
        <mxCell id="fvIKBjMohI9ecKHUE_Nv-56" style="edgeStyle=orthogonalEdgeStyle;rounded=0;orthogonalLoop=1;jettySize=auto;html=1;entryX=1;entryY=0.5;entryDx=0;entryDy=0;endArrow=none;endFill=0;" parent="1" source="fvIKBjMohI9ecKHUE_Nv-32" target="fvIKBjMohI9ecKHUE_Nv-49" edge="1">
          <mxGeometry relative="1" as="geometry" />
        </mxCell>
        <mxCell id="fvIKBjMohI9ecKHUE_Nv-86" style="edgeStyle=orthogonalEdgeStyle;rounded=0;orthogonalLoop=1;jettySize=auto;html=1;endArrow=none;endFill=0;" parent="1" source="fvIKBjMohI9ecKHUE_Nv-32" target="fvIKBjMohI9ecKHUE_Nv-79" edge="1">
          <mxGeometry relative="1" as="geometry" />
        </mxCell>
        <mxCell id="fvIKBjMohI9ecKHUE_Nv-32" value="User" style="swimlane;fontStyle=0;childLayout=stackLayout;horizontal=1;startSize=30;horizontalStack=0;resizeParent=1;resizeParentMax=0;resizeLast=0;collapsible=1;marginBottom=0;whiteSpace=wrap;html=1;" parent="1" vertex="1">
          <mxGeometry x="1010" y="75" width="140" height="150" as="geometry" />
        </mxCell>
        <mxCell id="fvIKBjMohI9ecKHUE_Nv-33" value="Id" style="text;strokeColor=none;fillColor=none;align=left;verticalAlign=middle;spacingLeft=4;spacingRight=4;overflow=hidden;points=[[0,0.5],[1,0.5]];portConstraint=eastwest;rotatable=0;whiteSpace=wrap;html=1;" parent="fvIKBjMohI9ecKHUE_Nv-32" vertex="1">
          <mxGeometry y="30" width="140" height="30" as="geometry" />
        </mxCell>
        <mxCell id="fvIKBjMohI9ecKHUE_Nv-34" value="Name" style="text;strokeColor=none;fillColor=none;align=left;verticalAlign=middle;spacingLeft=4;spacingRight=4;overflow=hidden;points=[[0,0.5],[1,0.5]];portConstraint=eastwest;rotatable=0;whiteSpace=wrap;html=1;" parent="fvIKBjMohI9ecKHUE_Nv-32" vertex="1">
          <mxGeometry y="60" width="140" height="30" as="geometry" />
        </mxCell>
        <mxCell id="fvIKBjMohI9ecKHUE_Nv-35" value="Email" style="text;strokeColor=none;fillColor=none;align=left;verticalAlign=middle;spacingLeft=4;spacingRight=4;overflow=hidden;points=[[0,0.5],[1,0.5]];portConstraint=eastwest;rotatable=0;whiteSpace=wrap;html=1;" parent="fvIKBjMohI9ecKHUE_Nv-32" vertex="1">
          <mxGeometry y="90" width="140" height="30" as="geometry" />
        </mxCell>
        <mxCell id="fvIKBjMohI9ecKHUE_Nv-42" value="Role" style="text;strokeColor=none;fillColor=none;align=left;verticalAlign=middle;spacingLeft=4;spacingRight=4;overflow=hidden;points=[[0,0.5],[1,0.5]];portConstraint=eastwest;rotatable=0;whiteSpace=wrap;html=1;" parent="fvIKBjMohI9ecKHUE_Nv-32" vertex="1">
          <mxGeometry y="120" width="140" height="30" as="geometry" />
        </mxCell>
        <mxCell id="fvIKBjMohI9ecKHUE_Nv-36" value="" style="group" parent="1" vertex="1" connectable="0">
          <mxGeometry x="80" y="490" width="140" height="120" as="geometry" />
        </mxCell>
        <mxCell id="fvIKBjMohI9ecKHUE_Nv-1" value="Activity" style="swimlane;fontStyle=0;childLayout=stackLayout;horizontal=1;startSize=30;horizontalStack=0;resizeParent=1;resizeParentMax=0;resizeLast=0;collapsible=1;marginBottom=0;whiteSpace=wrap;html=1;" parent="fvIKBjMohI9ecKHUE_Nv-36" vertex="1">
          <mxGeometry y="30" width="140" height="90" as="geometry" />
        </mxCell>
        <mxCell id="fvIKBjMohI9ecKHUE_Nv-2" value="&lt;div style=&quot;line-height: 19px; white-space: pre;&quot;&gt;&lt;font face=&quot;Helvetica&quot; style=&quot;color: light-dark(rgb(100, 87, 165), rgb(255, 255, 255));&quot;&gt;Id&lt;/font&gt;&lt;/div&gt;" style="text;strokeColor=none;fillColor=none;align=left;verticalAlign=middle;spacingLeft=4;spacingRight=4;overflow=hidden;points=[[0,0.5],[1,0.5]];portConstraint=eastwest;rotatable=0;whiteSpace=wrap;html=1;" parent="fvIKBjMohI9ecKHUE_Nv-1" vertex="1">
          <mxGeometry y="30" width="140" height="30" as="geometry" />
        </mxCell>
        <mxCell id="fvIKBjMohI9ecKHUE_Nv-4" value="&lt;div style=&quot;line-height: 19px; white-space: pre;&quot;&gt;&lt;font style=&quot;color: light-dark(rgb(170, 155, 245), rgb(255, 255, 255));&quot;&gt;Message&lt;/font&gt;&lt;/div&gt;" style="text;strokeColor=none;fillColor=none;align=left;verticalAlign=middle;spacingLeft=4;spacingRight=4;overflow=hidden;points=[[0,0.5],[1,0.5]];portConstraint=eastwest;rotatable=0;whiteSpace=wrap;html=1;" parent="fvIKBjMohI9ecKHUE_Nv-1" vertex="1">
          <mxGeometry y="60" width="140" height="30" as="geometry" />
        </mxCell>
        <mxCell id="fvIKBjMohI9ecKHUE_Nv-23" value="*" style="text;html=1;align=center;verticalAlign=middle;resizable=0;points=[];autosize=1;strokeColor=none;fillColor=none;" parent="fvIKBjMohI9ecKHUE_Nv-36" vertex="1">
          <mxGeometry x="70" width="30" height="30" as="geometry" />
        </mxCell>
        <mxCell id="fvIKBjMohI9ecKHUE_Nv-37" value="" style="group" parent="1" vertex="1" connectable="0">
          <mxGeometry x="260" y="490" width="140" height="120" as="geometry" />
        </mxCell>
        <mxCell id="fvIKBjMohI9ecKHUE_Nv-10" value="Note" style="swimlane;fontStyle=0;childLayout=stackLayout;horizontal=1;startSize=30;horizontalStack=0;resizeParent=1;resizeParentMax=0;resizeLast=0;collapsible=1;marginBottom=0;whiteSpace=wrap;html=1;" parent="fvIKBjMohI9ecKHUE_Nv-37" vertex="1">
          <mxGeometry y="30" width="140" height="90" as="geometry" />
        </mxCell>
        <mxCell id="fvIKBjMohI9ecKHUE_Nv-11" value="Id" style="text;strokeColor=none;fillColor=none;align=left;verticalAlign=middle;spacingLeft=4;spacingRight=4;overflow=hidden;points=[[0,0.5],[1,0.5]];portConstraint=eastwest;rotatable=0;whiteSpace=wrap;html=1;" parent="fvIKBjMohI9ecKHUE_Nv-10" vertex="1">
          <mxGeometry y="30" width="140" height="30" as="geometry" />
        </mxCell>
        <mxCell id="fvIKBjMohI9ecKHUE_Nv-12" value="Content" style="text;strokeColor=none;fillColor=none;align=left;verticalAlign=middle;spacingLeft=4;spacingRight=4;overflow=hidden;points=[[0,0.5],[1,0.5]];portConstraint=eastwest;rotatable=0;whiteSpace=wrap;html=1;" parent="fvIKBjMohI9ecKHUE_Nv-10" vertex="1">
          <mxGeometry y="60" width="140" height="30" as="geometry" />
        </mxCell>
        <mxCell id="fvIKBjMohI9ecKHUE_Nv-24" value="*" style="text;html=1;align=center;verticalAlign=middle;resizable=0;points=[];autosize=1;strokeColor=none;fillColor=none;" parent="fvIKBjMohI9ecKHUE_Nv-37" vertex="1">
          <mxGeometry x="70" width="30" height="30" as="geometry" />
        </mxCell>
        <mxCell id="fvIKBjMohI9ecKHUE_Nv-38" value="" style="group" parent="1" vertex="1" connectable="0">
          <mxGeometry x="440" y="490" width="140" height="210" as="geometry" />
        </mxCell>
        <mxCell id="fvIKBjMohI9ecKHUE_Nv-15" value="Reference" style="swimlane;fontStyle=0;childLayout=stackLayout;horizontal=1;startSize=30;horizontalStack=0;resizeParent=1;resizeParentMax=0;resizeLast=0;collapsible=1;marginBottom=0;whiteSpace=wrap;html=1;" parent="fvIKBjMohI9ecKHUE_Nv-38" vertex="1">
          <mxGeometry y="30" width="140" height="180" as="geometry" />
        </mxCell>
        <mxCell id="fvIKBjMohI9ecKHUE_Nv-16" value="Id" style="text;strokeColor=none;fillColor=none;align=left;verticalAlign=middle;spacingLeft=4;spacingRight=4;overflow=hidden;points=[[0,0.5],[1,0.5]];portConstraint=eastwest;rotatable=0;whiteSpace=wrap;html=1;" parent="fvIKBjMohI9ecKHUE_Nv-15" vertex="1">
          <mxGeometry y="30" width="140" height="30" as="geometry" />
        </mxCell>
        <mxCell id="fvIKBjMohI9ecKHUE_Nv-17" value="ReferenceName" style="text;strokeColor=none;fillColor=none;align=left;verticalAlign=middle;spacingLeft=4;spacingRight=4;overflow=hidden;points=[[0,0.5],[1,0.5]];portConstraint=eastwest;rotatable=0;whiteSpace=wrap;html=1;" parent="fvIKBjMohI9ecKHUE_Nv-15" vertex="1">
          <mxGeometry y="60" width="140" height="30" as="geometry" />
        </mxCell>
        <mxCell id="fvIKBjMohI9ecKHUE_Nv-18" value="Url" style="text;strokeColor=none;fillColor=none;align=left;verticalAlign=middle;spacingLeft=4;spacingRight=4;overflow=hidden;points=[[0,0.5],[1,0.5]];portConstraint=eastwest;rotatable=0;whiteSpace=wrap;html=1;" parent="fvIKBjMohI9ecKHUE_Nv-15" vertex="1">
          <mxGeometry y="90" width="140" height="30" as="geometry" />
        </mxCell>
        <mxCell id="fvIKBjMohI9ecKHUE_Nv-19" value="Description" style="text;strokeColor=none;fillColor=none;align=left;verticalAlign=middle;spacingLeft=4;spacingRight=4;overflow=hidden;points=[[0,0.5],[1,0.5]];portConstraint=eastwest;rotatable=0;whiteSpace=wrap;html=1;" parent="fvIKBjMohI9ecKHUE_Nv-15" vertex="1">
          <mxGeometry y="120" width="140" height="30" as="geometry" />
        </mxCell>
        <mxCell id="fvIKBjMohI9ecKHUE_Nv-20" value="Authors" style="text;strokeColor=none;fillColor=none;align=left;verticalAlign=middle;spacingLeft=4;spacingRight=4;overflow=hidden;points=[[0,0.5],[1,0.5]];portConstraint=eastwest;rotatable=0;whiteSpace=wrap;html=1;" parent="fvIKBjMohI9ecKHUE_Nv-15" vertex="1">
          <mxGeometry y="150" width="140" height="30" as="geometry" />
        </mxCell>
        <mxCell id="fvIKBjMohI9ecKHUE_Nv-25" value="*" style="text;html=1;align=center;verticalAlign=middle;resizable=0;points=[];autosize=1;strokeColor=none;fillColor=none;" parent="fvIKBjMohI9ecKHUE_Nv-38" vertex="1">
          <mxGeometry x="70" width="30" height="30" as="geometry" />
        </mxCell>
        <mxCell id="fvIKBjMohI9ecKHUE_Nv-41" value="" style="group" parent="1" vertex="1" connectable="0">
          <mxGeometry x="440" y="60" width="140" height="210" as="geometry" />
        </mxCell>
        <mxCell id="fvIKBjMohI9ecKHUE_Nv-5" value="Project" style="swimlane;fontStyle=0;childLayout=stackLayout;horizontal=1;startSize=30;horizontalStack=0;resizeParent=1;resizeParentMax=0;resizeLast=0;collapsible=1;marginBottom=0;whiteSpace=wrap;html=1;" parent="fvIKBjMohI9ecKHUE_Nv-41" vertex="1">
          <mxGeometry width="140" height="180" as="geometry" />
        </mxCell>
        <mxCell id="fvIKBjMohI9ecKHUE_Nv-6" value="Id" style="text;strokeColor=none;fillColor=none;align=left;verticalAlign=middle;spacingLeft=4;spacingRight=4;overflow=hidden;points=[[0,0.5],[1,0.5]];portConstraint=eastwest;rotatable=0;whiteSpace=wrap;html=1;" parent="fvIKBjMohI9ecKHUE_Nv-5" vertex="1">
          <mxGeometry y="30" width="140" height="30" as="geometry" />
        </mxCell>
        <mxCell id="fvIKBjMohI9ecKHUE_Nv-7" value="Title" style="text;strokeColor=none;fillColor=none;align=left;verticalAlign=middle;spacingLeft=4;spacingRight=4;overflow=hidden;points=[[0,0.5],[1,0.5]];portConstraint=eastwest;rotatable=0;whiteSpace=wrap;html=1;" parent="fvIKBjMohI9ecKHUE_Nv-5" vertex="1">
          <mxGeometry y="60" width="140" height="30" as="geometry" />
        </mxCell>
        <mxCell id="fvIKBjMohI9ecKHUE_Nv-8" value="Description" style="text;strokeColor=none;fillColor=none;align=left;verticalAlign=middle;spacingLeft=4;spacingRight=4;overflow=hidden;points=[[0,0.5],[1,0.5]];portConstraint=eastwest;rotatable=0;whiteSpace=wrap;html=1;" parent="fvIKBjMohI9ecKHUE_Nv-5" vertex="1">
          <mxGeometry y="90" width="140" height="30" as="geometry" />
        </mxCell>
        <mxCell id="fvIKBjMohI9ecKHUE_Nv-39" value="Deadline" style="text;strokeColor=none;fillColor=none;align=left;verticalAlign=middle;spacingLeft=4;spacingRight=4;overflow=hidden;points=[[0,0.5],[1,0.5]];portConstraint=eastwest;rotatable=0;whiteSpace=wrap;html=1;" parent="fvIKBjMohI9ecKHUE_Nv-5" vertex="1">
          <mxGeometry y="120" width="140" height="30" as="geometry" />
        </mxCell>
        <mxCell id="fvIKBjMohI9ecKHUE_Nv-40" value="Status" style="text;strokeColor=none;fillColor=none;align=left;verticalAlign=middle;spacingLeft=4;spacingRight=4;overflow=hidden;points=[[0,0.5],[1,0.5]];portConstraint=eastwest;rotatable=0;whiteSpace=wrap;html=1;" parent="fvIKBjMohI9ecKHUE_Nv-5" vertex="1">
          <mxGeometry y="150" width="140" height="30" as="geometry" />
        </mxCell>
        <mxCell id="fvIKBjMohI9ecKHUE_Nv-22" value="1" style="text;html=1;align=center;verticalAlign=middle;resizable=0;points=[];autosize=1;strokeColor=none;fillColor=none;" parent="fvIKBjMohI9ecKHUE_Nv-41" vertex="1">
          <mxGeometry x="70" y="180" width="30" height="30" as="geometry" />
        </mxCell>
        <mxCell id="fvIKBjMohI9ecKHUE_Nv-49" value="&lt;i&gt;ProjectUser&lt;/i&gt;" style="swimlane;fontStyle=0;childLayout=stackLayout;horizontal=1;startSize=30;horizontalStack=0;resizeParent=1;resizeParentMax=0;resizeLast=0;collapsible=1;marginBottom=0;whiteSpace=wrap;html=1;" parent="1" vertex="1">
          <mxGeometry x="730" y="105" width="140" height="90" as="geometry" />
        </mxCell>
        <mxCell id="fvIKBjMohI9ecKHUE_Nv-50" value="Id" style="text;strokeColor=none;fillColor=none;align=left;verticalAlign=middle;spacingLeft=4;spacingRight=4;overflow=hidden;points=[[0,0.5],[1,0.5]];portConstraint=eastwest;rotatable=0;whiteSpace=wrap;html=1;" parent="fvIKBjMohI9ecKHUE_Nv-49" vertex="1">
          <mxGeometry y="30" width="140" height="30" as="geometry" />
        </mxCell>
        <mxCell id="fvIKBjMohI9ecKHUE_Nv-73" value="UserPermission" style="text;strokeColor=none;fillColor=none;align=left;verticalAlign=middle;spacingLeft=4;spacingRight=4;overflow=hidden;points=[[0,0.5],[1,0.5]];portConstraint=eastwest;rotatable=0;whiteSpace=wrap;html=1;" parent="fvIKBjMohI9ecKHUE_Nv-49" vertex="1">
          <mxGeometry y="60" width="140" height="30" as="geometry" />
        </mxCell>
        <mxCell id="fvIKBjMohI9ecKHUE_Nv-55" style="edgeStyle=orthogonalEdgeStyle;rounded=0;orthogonalLoop=1;jettySize=auto;html=1;entryX=0;entryY=0.5;entryDx=0;entryDy=0;endArrow=none;endFill=0;" parent="1" source="fvIKBjMohI9ecKHUE_Nv-5" target="fvIKBjMohI9ecKHUE_Nv-49" edge="1">
          <mxGeometry relative="1" as="geometry" />
        </mxCell>
        <mxCell id="fvIKBjMohI9ecKHUE_Nv-57" value="1" style="text;html=1;align=center;verticalAlign=middle;resizable=0;points=[];autosize=1;strokeColor=none;fillColor=none;" parent="1" vertex="1">
          <mxGeometry x="580" y="150" width="30" height="30" as="geometry" />
        </mxCell>
        <mxCell id="fvIKBjMohI9ecKHUE_Nv-58" value="1" style="text;html=1;align=center;verticalAlign=middle;resizable=0;points=[];autosize=1;strokeColor=none;fillColor=none;" parent="1" vertex="1">
          <mxGeometry x="980" y="150" width="30" height="30" as="geometry" />
        </mxCell>
        <mxCell id="fvIKBjMohI9ecKHUE_Nv-59" value="*" style="text;html=1;align=center;verticalAlign=middle;resizable=0;points=[];autosize=1;strokeColor=none;fillColor=none;" parent="1" vertex="1">
          <mxGeometry x="870" y="150" width="30" height="30" as="geometry" />
        </mxCell>
        <mxCell id="fvIKBjMohI9ecKHUE_Nv-60" value="*" style="text;html=1;align=center;verticalAlign=middle;resizable=0;points=[];autosize=1;strokeColor=none;fillColor=none;" parent="1" vertex="1">
          <mxGeometry x="700" y="150" width="30" height="30" as="geometry" />
        </mxCell>
        <mxCell id="fvIKBjMohI9ecKHUE_Nv-79" value="&lt;i&gt;UserTask&lt;/i&gt;" style="swimlane;fontStyle=0;childLayout=stackLayout;horizontal=1;startSize=30;horizontalStack=0;resizeParent=1;resizeParentMax=0;resizeLast=0;collapsible=1;marginBottom=0;whiteSpace=wrap;html=1;" parent="1" vertex="1">
          <mxGeometry x="1010" y="-240" width="140" height="60" as="geometry" />
        </mxCell>
        <mxCell id="fvIKBjMohI9ecKHUE_Nv-82" value="Comment" style="text;strokeColor=none;fillColor=none;align=left;verticalAlign=middle;spacingLeft=4;spacingRight=4;overflow=hidden;points=[[0,0.5],[1,0.5]];portConstraint=eastwest;rotatable=0;whiteSpace=wrap;html=1;" parent="fvIKBjMohI9ecKHUE_Nv-79" vertex="1">
          <mxGeometry y="30" width="140" height="30" as="geometry" />
        </mxCell>
        <mxCell id="fvIKBjMohI9ecKHUE_Nv-85" style="edgeStyle=orthogonalEdgeStyle;rounded=0;orthogonalLoop=1;jettySize=auto;html=1;endArrow=none;endFill=0;" parent="1" source="fvIKBjMohI9ecKHUE_Nv-26" target="fvIKBjMohI9ecKHUE_Nv-79" edge="1">
          <mxGeometry relative="1" as="geometry" />
        </mxCell>
        <mxCell id="fvIKBjMohI9ecKHUE_Nv-87" style="edgeStyle=orthogonalEdgeStyle;rounded=0;orthogonalLoop=1;jettySize=auto;html=1;endArrow=none;endFill=0;" parent="1" source="fvIKBjMohI9ecKHUE_Nv-26" target="fvIKBjMohI9ecKHUE_Nv-5" edge="1">
          <mxGeometry relative="1" as="geometry" />
        </mxCell>
        <mxCell id="fvIKBjMohI9ecKHUE_Nv-26" value="Task" style="swimlane;fontStyle=0;childLayout=stackLayout;horizontal=1;startSize=30;horizontalStack=0;resizeParent=1;resizeParentMax=0;resizeLast=0;collapsible=1;marginBottom=0;whiteSpace=wrap;html=1;" parent="1" vertex="1">
          <mxGeometry x="730" y="-300" width="140" height="180" as="geometry" />
        </mxCell>
        <mxCell id="fvIKBjMohI9ecKHUE_Nv-27" value="Id" style="text;strokeColor=none;fillColor=none;align=left;verticalAlign=middle;spacingLeft=4;spacingRight=4;overflow=hidden;points=[[0,0.5],[1,0.5]];portConstraint=eastwest;rotatable=0;whiteSpace=wrap;html=1;" parent="fvIKBjMohI9ecKHUE_Nv-26" vertex="1">
          <mxGeometry y="30" width="140" height="30" as="geometry" />
        </mxCell>
        <mxCell id="fvIKBjMohI9ecKHUE_Nv-28" value="Title" style="text;strokeColor=none;fillColor=none;align=left;verticalAlign=middle;spacingLeft=4;spacingRight=4;overflow=hidden;points=[[0,0.5],[1,0.5]];portConstraint=eastwest;rotatable=0;whiteSpace=wrap;html=1;" parent="fvIKBjMohI9ecKHUE_Nv-26" vertex="1">
          <mxGeometry y="60" width="140" height="30" as="geometry" />
        </mxCell>
        <mxCell id="fvIKBjMohI9ecKHUE_Nv-29" value="Type" style="text;strokeColor=none;fillColor=none;align=left;verticalAlign=middle;spacingLeft=4;spacingRight=4;overflow=hidden;points=[[0,0.5],[1,0.5]];portConstraint=eastwest;rotatable=0;whiteSpace=wrap;html=1;" parent="fvIKBjMohI9ecKHUE_Nv-26" vertex="1">
          <mxGeometry y="90" width="140" height="30" as="geometry" />
        </mxCell>
        <mxCell id="fvIKBjMohI9ecKHUE_Nv-31" value="Priority" style="text;strokeColor=none;fillColor=none;align=left;verticalAlign=middle;spacingLeft=4;spacingRight=4;overflow=hidden;points=[[0,0.5],[1,0.5]];portConstraint=eastwest;rotatable=0;whiteSpace=wrap;html=1;" parent="fvIKBjMohI9ecKHUE_Nv-26" vertex="1">
          <mxGeometry y="120" width="140" height="30" as="geometry" />
        </mxCell>
        <mxCell id="fvIKBjMohI9ecKHUE_Nv-30" value="DueDate" style="text;strokeColor=none;fillColor=none;align=left;verticalAlign=middle;spacingLeft=4;spacingRight=4;overflow=hidden;points=[[0,0.5],[1,0.5]];portConstraint=eastwest;rotatable=0;whiteSpace=wrap;html=1;" parent="fvIKBjMohI9ecKHUE_Nv-26" vertex="1">
          <mxGeometry y="150" width="140" height="30" as="geometry" />
        </mxCell>
        <mxCell id="fvIKBjMohI9ecKHUE_Nv-89" value="1" style="text;html=1;align=center;verticalAlign=middle;resizable=0;points=[];autosize=1;strokeColor=none;fillColor=none;" parent="1" vertex="1">
          <mxGeometry x="510" y="30" width="30" height="30" as="geometry" />
        </mxCell>
        <mxCell id="fvIKBjMohI9ecKHUE_Nv-90" value="*" style="text;html=1;align=center;verticalAlign=middle;resizable=0;points=[];autosize=1;strokeColor=none;fillColor=none;" parent="1" vertex="1">
          <mxGeometry x="700" y="-210" width="30" height="30" as="geometry" />
        </mxCell>
        <mxCell id="fvIKBjMohI9ecKHUE_Nv-91" value="*" style="text;html=1;align=center;verticalAlign=middle;resizable=0;points=[];autosize=1;strokeColor=none;fillColor=none;" parent="1" vertex="1">
          <mxGeometry x="980" y="-210" width="30" height="30" as="geometry" />
        </mxCell>
        <mxCell id="fvIKBjMohI9ecKHUE_Nv-92" value="1" style="text;html=1;align=center;verticalAlign=middle;resizable=0;points=[];autosize=1;strokeColor=none;fillColor=none;" parent="1" vertex="1">
          <mxGeometry x="870" y="-210" width="30" height="30" as="geometry" />
        </mxCell>
        <mxCell id="fvIKBjMohI9ecKHUE_Nv-93" value="*" style="text;html=1;align=center;verticalAlign=middle;resizable=0;points=[];autosize=1;strokeColor=none;fillColor=none;" parent="1" vertex="1">
          <mxGeometry x="1050" y="-180" width="30" height="30" as="geometry" />
        </mxCell>
        <mxCell id="fvIKBjMohI9ecKHUE_Nv-94" value="1" style="text;html=1;align=center;verticalAlign=middle;resizable=0;points=[];autosize=1;strokeColor=none;fillColor=none;" parent="1" vertex="1">
          <mxGeometry x="1050" y="45" width="30" height="30" as="geometry" />
        </mxCell>
      </root>
    </mxGraphModel>
  </diagram>
</mxfile>
